<?xml version="1.0" encoding="UTF-8"?>
<svg xmlns="http://www.w3.org/2000/svg" viewBox="0 0 1200 700">
  <defs>
    <linearGradient id="waterGrad" x1="0%" y1="0%" x2="100%" y2="0%">
      <stop offset="0%" stop-color="#14b8a6" stop-opacity="0.85"/>
      <stop offset="50%" stop-color="#0d9488" stop-opacity="1"/>
      <stop offset="100%" stop-color="#06b6d4" stop-opacity="0.85"/>
    </linearGradient>
    <filter id="glow" x="-50%" y="-50%" width="200%" height="200%">
      <feGaussianBlur stdDeviation="3" result="coloredBlur"/>
      <feMerge>
        <feMergeNode in="coloredBlur"/>
        <feMergeNode in="SourceGraphic"/>
      </feMerge>
    </filter>
    <marker id="flowArrow" markerWidth="12" markerHeight="10" refX="10" refY="5" orient="auto">
      <path d="M 0,0 L 12,5 L 0,10 z" fill="#0d9488"/>
    </marker>
    <style>text { font-family: -apple-system, "PingFang SC", "Microsoft YaHei", sans-serif; }</style>
  </defs>
  <rect width="1200" height="700" fill="#f8f6f3"/>
  <text x="600" y="48" text-anchor="middle" font-size="24" font-weight="600" fill="#0f172a">Current 水流意象 · 三层 Context 主权</text>
  <text x="600" y="74" text-anchor="middle" font-size="13" fill="#64748b" font-style="italic">&quot;意义在人与人之间自由流动&quot; —— David Bohm</text>
  <path d="M 80,350 Q 200,330 320,350 T 560,350 T 800,350 T 1120,350" fill="none" stroke="url(#waterGrad)" stroke-width="6" opacity="0.55"/>
  <circle cx="120" cy="350" r="6" fill="#0d9488" filter="url(#glow)"/>
  <circle cx="200" cy="340" r="6" fill="#0d9488" filter="url(#glow)"/>
  <circle cx="280" cy="350" r="6" fill="#0d9488" filter="url(#glow)"/>
  <circle cx="380" cy="345" r="6" fill="#0d9488" filter="url(#glow)"/>
  <circle cx="480" cy="350" r="6" fill="#0d9488" filter="url(#glow)"/>
  <circle cx="580" cy="348" r="6" fill="#0d9488" filter="url(#glow)"/>
  <circle cx="680" cy="350" r="6" fill="#0d9488" filter="url(#glow)"/>
  <circle cx="780" cy="342" r="6" fill="#0d9488" filter="url(#glow)"/>
  <circle cx="880" cy="350" r="6" fill="#0d9488" filter="url(#glow)"/>
  <circle cx="980" cy="345" r="6" fill="#0d9488" filter="url(#glow)"/>
  <circle cx="1080" cy="350" r="6" fill="#0d9488" filter="url(#glow)"/>
  <text x="65" y="355" text-anchor="end" font-size="20" font-weight="700" fill="#0d9488">Current</text>
  <text x="65" y="376" text-anchor="end" font-size="11" fill="#64748b">团队集体思想的水流</text>
  <line x1="1095" y1="350" x2="1145" y2="350" stroke="#0d9488" stroke-width="3" marker-end="url(#flowArrow)"/>
  <path d="M 600,260 Q 600,300 600,340" stroke="#d97706" stroke-width="2" stroke-dasharray="4,3" fill="none" opacity="0.6"/>
  <rect x="430" y="100" width="340" height="160" rx="14" ry="14" fill="#fef3c7" stroke="#d97706" stroke-width="2.5" filter="url(#glow)"/>
  <text x="600" y="132" text-anchor="middle" font-size="22" font-weight="700" fill="#b45309">⭐ harbor</text>
  <text x="600" y="152" text-anchor="middle" font-size="12" fill="#92400e" font-style="italic">共同意义的汇集地 · &quot;我们是谁&quot;</text>
  <rect x="450" y="175" width="95" height="65" rx="6" ry="6" fill="#fff" stroke="#d97706" stroke-width="1.5"/>
  <text x="497" y="200" text-anchor="middle" font-size="13" font-weight="600" fill="#b45309">mission</text>
  <text x="497" y="222" text-anchor="middle" font-size="11" fill="#92400e">使命</text>
  <rect x="555" y="175" width="95" height="65" rx="6" ry="6" fill="#fff" stroke="#d97706" stroke-width="1.5"/>
  <text x="602" y="200" text-anchor="middle" font-size="13" font-weight="600" fill="#b45309">values</text>
  <text x="602" y="222" text-anchor="middle" font-size="11" fill="#92400e">信念</text>
  <rect x="660" y="175" width="95" height="65" rx="6" ry="6" fill="#fff" stroke="#d97706" stroke-width="1.5"/>
  <text x="707" y="200" text-anchor="middle" font-size="13" font-weight="600" fill="#b45309">identity</text>
  <text x="707" y="222" text-anchor="middle" font-size="11" fill="#92400e">名册</text>
  <path d="M 220,485 Q 250,420 295,360" stroke="#64748b" stroke-width="1.5" stroke-dasharray="4,3" fill="none" opacity="0.5"/>
  <ellipse cx="180" cy="510" rx="105" ry="55" fill="#f1f5f9" stroke="#64748b" stroke-width="2" stroke-dasharray="6,3"/>
  <text x="180" y="500" text-anchor="middle" font-size="17" font-weight="600" fill="#334155">profile</text>
  <text x="180" y="520" text-anchor="middle" font-size="11" fill="#64748b">&quot;我是谁&quot; · 个人沉思</text>
  <text x="180" y="538" text-anchor="middle" font-size="10" fill="#94a3b8">🔒 本地 / 私密</text>
  <path d="M 720,355 Q 780,420 840,505" stroke="#06b6d4" stroke-width="3.5" fill="none" opacity="0.7"/>
  <circle cx="840" cy="510" r="34" fill="#cffafe" stroke="#0891b2" stroke-width="2.5"/>
  <text x="840" y="506" text-anchor="middle" font-size="12" font-weight="600" fill="#0e7490">stream-A</text>
  <text x="840" y="524" text-anchor="middle" font-size="10" fill="#0891b2">项目 X</text>
  <path d="M 820,355 Q 900,440 960,535" stroke="#06b6d4" stroke-width="3.5" fill="none" opacity="0.7"/>
  <circle cx="960" cy="540" r="34" fill="#cffafe" stroke="#0891b2" stroke-width="2.5"/>
  <text x="960" y="536" text-anchor="middle" font-size="12" font-weight="600" fill="#0e7490">stream-B</text>
  <text x="960" y="554" text-anchor="middle" font-size="10" fill="#0891b2">项目 Y</text>
  <path d="M 920,355 Q 1020,450 1080,535" stroke="#06b6d4" stroke-width="3.5" fill="none" opacity="0.7"/>
  <circle cx="1080" cy="540" r="34" fill="#cffafe" stroke="#0891b2" stroke-width="2.5"/>
  <text x="1080" y="536" text-anchor="middle" font-size="12" font-weight="600" fill="#0e7490">stream-C</text>
  <text x="1080" y="554" text-anchor="middle" font-size="10" fill="#0891b2">项目 Z</text>
  <text x="960" y="620" text-anchor="middle" font-size="13" fill="#0e7490" font-style="italic">&quot;cast an idea into the stream&quot;</text>
  <text x="960" y="638" text-anchor="middle" font-size="11" fill="#64748b">— Current 命名来源 (cast = 把想法投入水流)</text>
  <g transform="translate(80, 600)">
    <text x="0" y="0" font-size="12" font-weight="700" fill="#334155">三层 Context 主权:</text>
    <circle cx="10" cy="22" r="6" fill="#d97706"/>
    <text x="24" y="26" font-size="11" fill="#475569">团队 context · harbor</text>
    <circle cx="10" cy="44" r="6" fill="#64748b"/>
    <text x="24" y="48" font-size="11" fill="#475569">个人 context · profile</text>
    <circle cx="10" cy="66" r="6" fill="#0891b2"/>
    <text x="24" y="70" font-size="11" fill="#475569">项目 context · stream</text>
  </g>
</svg>