<?xml version="1.0" encoding="UTF-8"?>
<svg xmlns="http://www.w3.org/2000/svg" viewBox="0 0 1200 540" font-family="PingFang SC, Hiragino Sans GB, Helvetica Neue, Arial, sans-serif">
  <defs>
    <marker id="arr-blue" markerWidth="12" markerHeight="9" refX="11" refY="4.5" orient="auto">
      <polygon points="0 0, 12 4.5, 0 9" fill="#2563eb"/>
    </marker>
  </defs>
  <rect width="1200" height="540" fill="#ffffff"/>
  <text x="600" y="36" text-anchor="middle" font-size="20" font-weight="bold" fill="#0f172a">Publish 链 (单向 · 跨区域 publish)</text>
  <text x="600" y="58" text-anchor="middle" font-size="12" fill="#64748b">每次 publish 是 explicit event · rewrite 而非 sync · 不持续同步</text>
  <rect x="60" y="90" width="320" height="380" rx="10" fill="#f0f9ff" stroke="#0284c7" stroke-width="2"/>
  <text x="220" y="118" text-anchor="middle" font-size="15" font-weight="bold" fill="#0c4a6e">Vault "我们"层</text>
  <text x="220" y="138" text-anchor="middle" font-size="11" font-style="italic" fill="#64748b">vault canonical · 持续活 · 个人迭代源</text>
  <line x1="80" y1="158" x2="360" y2="158" stroke="#bae6fd" stroke-width="1"/>
  <rect x="80" y="180" width="280" height="46" rx="5" fill="#ffffff" stroke="#7dd3fc" stroke-width="1"/>
  <text x="92" y="199" font-size="13" font-weight="bold" fill="#0c4a6e">设计纲领</text>
  <text x="92" y="216" font-size="10" fill="#64748b">根原则 + 派生推论</text>
  <rect x="80" y="236" width="280" height="46" rx="5" fill="#ffffff" stroke="#7dd3fc" stroke-width="1"/>
  <text x="92" y="255" font-size="13" font-weight="bold" fill="#0c4a6e">决策对照记</text>
  <text x="92" y="272" font-size="10" fill="#64748b">关键决策 + 为什么</text>
  <rect x="80" y="292" width="280" height="46" rx="5" fill="#ffffff" stroke="#7dd3fc" stroke-width="1"/>
  <text x="92" y="311" font-size="13" font-weight="bold" fill="#0c4a6e">命名根源</text>
  <text x="92" y="328" font-size="10" fill="#64748b">Bohm + Senge 哲学</text>
  <rect x="80" y="348" width="280" height="46" rx="5" fill="#ffffff" stroke="#7dd3fc" stroke-width="1"/>
  <text x="92" y="367" font-size="13" font-weight="bold" fill="#0c4a6e">架构 spec</text>
  <text x="92" y="384" font-size="10" fill="#64748b">技术结构 / 演化</text>
  <text x="220" y="445" text-anchor="middle" font-size="10" fill="#475569">用第一人称 / vault wikilinks / 第一手语言</text>
  <rect x="440" y="90" width="320" height="380" rx="10" fill="#f0fdf4" stroke="#059669" stroke-width="2"/>
  <text x="600" y="118" text-anchor="middle" font-size="15" font-weight="bold" fill="#14532d">Stream</text>
  <text x="600" y="138" text-anchor="middle" font-size="11" font-style="italic" fill="#64748b">协作现场 + 设计文档家</text>
  <line x1="460" y1="158" x2="740" y2="158" stroke="#bbf7d0" stroke-width="1"/>
  <rect x="460" y="180" width="280" height="46" rx="5" fill="#ffffff" stroke="#86efac" stroke-width="1"/>
  <text x="472" y="199" font-size="13" font-weight="bold" fill="#14532d">design/</text>
  <text x="472" y="216" font-size="10" fill="#64748b">vault 我们层 publish snapshots (带日期)</text>
  <rect x="460" y="236" width="280" height="46" rx="5" fill="#ffffff" stroke="#86efac" stroke-width="1"/>
  <text x="472" y="255" font-size="13" font-weight="bold" fill="#14532d">specs/</text>
  <text x="472" y="272" font-size="10" fill="#64748b">技术规格 / RFC (团队级技术真相)</text>
  <rect x="460" y="292" width="280" height="46" rx="5" fill="#ffffff" stroke="#86efac" stroke-width="1"/>
  <text x="472" y="311" font-size="13" font-weight="bold" fill="#14532d">tests/</text>
  <text x="472" y="328" font-size="10" fill="#64748b">测试文档 / 步骤 / 用例</text>
  <rect x="460" y="348" width="280" height="46" rx="5" fill="#ffffff" stroke="#86efac" stroke-width="1"/>
  <text x="472" y="367" font-size="13" font-weight="bold" fill="#14532d">feedback/</text>
  <text x="472" y="384" font-size="10" fill="#64748b">团队反馈 / 跨人传内容</text>
  <text x="600" y="445" text-anchor="middle" font-size="10" fill="#475569">团队视角 rewrite · 旧 snapshot archive 保留 timeline</text>
  <rect x="820" y="90" width="320" height="380" rx="10" fill="#fef2f2" stroke="#dc2626" stroke-width="2"/>
  <text x="980" y="118" text-anchor="middle" font-size="15" font-weight="bold" fill="#7f1d1d">Code 用户文档</text>
  <text x="980" y="138" text-anchor="middle" font-size="11" font-style="italic" fill="#64748b">面向最终用户</text>
  <line x1="840" y1="158" x2="1120" y2="158" stroke="#fecaca" stroke-width="1"/>
  <rect x="840" y="180" width="280" height="46" rx="5" fill="#ffffff" stroke="#fca5a5" stroke-width="1"/>
  <text x="852" y="199" font-size="13" font-weight="bold" fill="#7f1d1d">user-manual.md</text>
  <text x="852" y="216" font-size="10" fill="#64748b">使用手册</text>
  <rect x="840" y="236" width="280" height="46" rx="5" fill="#ffffff" stroke="#fca5a5" stroke-width="1"/>
  <text x="852" y="255" font-size="13" font-weight="bold" fill="#7f1d1d">create-pat.md</text>
  <text x="852" y="272" font-size="10" fill="#64748b">PAT 配置说明</text>
  <rect x="840" y="292" width="280" height="46" rx="5" fill="#ffffff" stroke="#fca5a5" stroke-width="1"/>
  <text x="852" y="311" font-size="13" font-weight="bold" fill="#7f1d1d">plugin-upgrade.md</text>
  <text x="852" y="328" font-size="10" fill="#64748b">插件升级</text>
  <rect x="840" y="348" width="280" height="46" rx="5" fill="#ffffff" stroke="#fca5a5" stroke-width="1"/>
  <text x="852" y="367" font-size="13" font-weight="bold" fill="#7f1d1d">invite-flow.md</text>
  <text x="852" y="384" font-size="10" fill="#64748b">邀请流程</text>
  <text x="980" y="445" text-anchor="middle" font-size="10" fill="#475569">不放设计讨论 / 决策对照 (那些留 stream)</text>
  <path d="M 380 280 L 440 280" stroke="#2563eb" stroke-width="3" fill="none" marker-end="url(#arr-blue)"/>
  <rect x="378" y="252" width="64" height="16" fill="#ffffff" opacity="0.95"/>
  <text x="410" y="264" text-anchor="middle" font-size="11" font-weight="bold" fill="#2563eb">publish</text>
  <text x="410" y="298" text-anchor="middle" font-size="9" fill="#64748b">"这版定了"</text>
  <path d="M 760 280 L 820 280" stroke="#2563eb" stroke-width="3" fill="none" marker-end="url(#arr-blue)"/>
  <rect x="758" y="252" width="64" height="16" fill="#ffffff" opacity="0.95"/>
  <text x="790" y="264" text-anchor="middle" font-size="11" font-weight="bold" fill="#2563eb">publish</text>
  <text x="790" y="298" text-anchor="middle" font-size="9" fill="#64748b">"给用户用了"</text>
  <rect x="60" y="490" width="1080" height="40" rx="6" fill="#f9fafb" stroke="#e5e7eb" stroke-width="1"/>
  <text x="600" y="514" text-anchor="middle" font-size="11" fill="#374151">三层 publish <tspan font-weight="bold" fill="#2563eb">单向</tspan>· 反方向走"反思回流" (另一条路径). 不应:Code 塞设计讨论 · Stream mirror vault · Vault 备份 stream.</text>
</svg>